<?xml version="1.0" standalone="no"?>
<!DOCTYPE svg PUBLIC "-//W3C//DTD SVG 20010904//EN"
 "http://www.w3.org/TR/2001/REC-SVG-20010904/DTD/svg10.dtd">
<svg version="1.0" xmlns="http://www.w3.org/2000/svg"
 width="121.000000pt" height="121.000000pt" viewBox="0 0 121.000000 121.000000"
 preserveAspectRatio="xMidYMid meet">
<metadata>
Created by potrace 1.11, written by Peter Selinger 2001-2013
</metadata>
<g transform="translate(0.000000,121.000000) scale(0.100000,-0.100000)"
fill="#000000" stroke="none">
<path d="M548 1189 c-199 -21 -373 -140 -459 -313 -22 -45 -41 -91 -43 -102
-3 -12 -8 -37 -13 -55 -11 -39 -10 -178 1 -229 58 -268 301 -465 571 -461 74
1 85 2 152 20 108 29 224 105 294 193 50 63 102 172 118 246 54 258 -76 526
-310 641 -46 22 -100 43 -119 47 -102 17 -131 19 -192 13z m205 -179 c107 -40
207 -139 246 -244 10 -24 8 -25 -56 -45 -37 -12 -70 -21 -74 -21 -5 0 -15 15
-24 33 -34 70 -97 120 -176 141 -184 47 -352 -97 -337 -288 9 -101 62 -178
155 -225 113 -56 268 -15 337 90 30 44 31 49 12 49 -10 0 -13 15 -12 55 l1 55
103 0 c118 0 115 3 87 -105 -22 -82 -60 -147 -120 -204 -245 -232 -642 -108
-709 223 -46 224 86 436 313 502 63 18 183 11 254 -16z m-83 -265 c95 -49 101
-215 10 -269 -21 -12 -54 -18 -105 -19 l-75 -2 0 142 0 142 -32 10 c-26 7 -12
9 70 10 73 1 111 -3 132 -14z"/>
</g>
</svg>
